# xmcd CD database file
#
# Track frame offsets:
#	150
#	18843
#	35581
#	52703
#	71002
#	89737
#	105538
#	122730
#	138920
#	156520
#	172815
#	187768
#	205170
#
# Disc length: 3026 seconds
#
# Revision: 0
# Processed by: cddbd v1.5.2PL0 Copyright (c) Steve Scherf et al.
# Submitted via: CDex 1.70
#
DISCID=a60bd00d
DTITLE=Doug Adkins - Dirt Roads and Fence Lines
DYEAR=2018
DGENRE=Country
TTITLE0=Dirt Roads And Fence Lines
TTITLE1=Small Montana Town
TTITLE2=Wishful Thinking
TTITLE3=Wish It Were Rainin'
TTITLE4=Not Enough Whiskey
TTITLE5=Two Steppin' Honky Tonk Dream
TTITLE6=Second Hand Heart
TTITLE7=Day To Day
TTITLE8=Good Ol Days
TTITLE9=Hereos Of The Lost Highway
TTITLE10=(Thank God) Dirt Roads Never End
TTITLE11=Where I Come From
TTITLE12=Bonus Track: Not Enough Whiskey(Extended Version)
EXTD=YEAR: 2018
EXTT0=
EXTT1=
EXTT2=
EXTT3=
EXTT4=
EXTT5=
EXTT6=
EXTT7=
EXTT8=
EXTT9=
EXTT10=
EXTT11=
EXTT12=
PLAYORDER=
